<svg width="300" height="300" viewBox="0 0 300 300" xmlns="http://www.w3.org/2000/svg">
  <g transform="translate(150, 150)">
    <!-- Lotus Petals -->
    <path d="M0,-100 C25,-75 25,-25 0,0 C-25,-25 -25,-75 0,-100" fill="none" stroke="#D84040" stroke-width="2" stroke-opacity="0.5" />
    <path d="M0,-100 C25,-75 25,-25 0,0 C-25,-25 -25,-75 0,-100" fill="none" stroke="#D84040" stroke-width="2" stroke-opacity="0.5" transform="rotate(30)" />
    <path d="M0,-100 C25,-75 25,-25 0,0 C-25,-25 -25,-75 0,-100" fill="none" stroke="#D84040" stroke-width="2" stroke-opacity="0.5" transform="rotate(60)" />
    <path d="M0,-100 C25,-75 25,-25 0,0 C-25,-25 -25,-75 0,-100" fill="none" stroke="#D84040" stroke-width="2" stroke-opacity="0.5" transform="rotate(90)" />
    <path d="M0,-100 C25,-75 25,-25 0,0 C-25,-25 -25,-75 0,-100" fill="none" stroke="#D84040" stroke-width="2" stroke-opacity="0.5" transform="rotate(120)" />
    <path d="M0,-100 C25,-75 25,-25 0,0 C-25,-25 -25,-75 0,-100" fill="none" stroke="#D84040" stroke-width="2" stroke-opacity="0.5" transform="rotate(150)" />
    <path d="M0,-100 C25,-75 25,-25 0,0 C-25,-25 -25,-75 0,-100" fill="none" stroke="#D84040" stroke-width="2" stroke-opacity="0.5" transform="rotate(180)" />
    <path d="M0,-100 C25,-75 25,-25 0,0 C-25,-25 -25,-75 0,-100" fill="none" stroke="#D84040" stroke-width="2" stroke-opacity="0.5" transform="rotate(210)" />
    <path d="M0,-100 C25,-75 25,-25 0,0 C-25,-25 -25,-75 0,-100" fill="none" stroke="#D84040" stroke-width="2" stroke-opacity="0.5" transform="rotate(240)" />
    <path d="M0,-100 C25,-75 25,-25 0,0 C-25,-25 -25,-75 0,-100" fill="none" stroke="#D84040" stroke-width="2" stroke-opacity="0.5" transform="rotate(270)" />
    <path d="M0,-100 C25,-75 25,-25 0,0 C-25,-25 -25,-75 0,-100" fill="none" stroke="#D84040" stroke-width="2" stroke-opacity="0.5" transform="rotate(300)" />
    <path d="M0,-100 C25,-75 25,-25 0,0 C-25,-25 -25,-75 0,-100" fill="none" stroke="#D84040" stroke-width="2" stroke-opacity="0.5" transform="rotate(330)" />
  </g>
</svg>

